<?xml version="1.0" encoding="UTF-8" standalone="no"?>
<!-- Created with Inkscape (http://www.inkscape.org/) -->

<svg
   width="512"
   height="512"
   viewBox="0 0 512 512"
   version="1.1"
   id="svg5"
   inkscape:export-filename="/home/h4kor/icon.png"
   inkscape:export-xdpi="96"
   inkscape:export-ydpi="96"
   inkscape:version="1.1.2 (0a00cf5339, 2022-02-04)"
   sodipodi:docname="DungeonPlanner.svg"
   xmlns:inkscape="http://www.inkscape.org/namespaces/inkscape"
   xmlns:sodipodi="http://sodipodi.sourceforge.net/DTD/sodipodi-0.dtd"
   xmlns="http://www.w3.org/2000/svg"
   xmlns:svg="http://www.w3.org/2000/svg">
  <sodipodi:namedview
     id="namedview7"
     pagecolor="#ffffff"
     bordercolor="#666666"
     borderopacity="1.0"
     inkscape:pageshadow="2"
     inkscape:pageopacity="0.0"
     inkscape:pagecheckerboard="0"
     inkscape:document-units="px"
     showgrid="false"
     inkscape:zoom="1.5937524"
     inkscape:cx="147.13703"
     inkscape:cy="213.96046"
     inkscape:window-width="2560"
     inkscape:window-height="1391"
     inkscape:window-x="0"
     inkscape:window-y="25"
     inkscape:window-maximized="1"
     inkscape:current-layer="layer1" />
  <defs
     id="defs2">
    <rect
       x="36.27452"
       y="36.790435"
       width="559.28044"
       height="504.42957"
       id="rect8509" />
    <inkscape:path-effect
       effect="bspline"
       id="path-effect3297"
       is_visible="true"
       lpeversion="1"
       weight="33.333333"
       steps="2"
       helper_size="0"
       apply_no_weight="true"
       apply_with_weight="true"
       only_selected="false" />
    <inkscape:path-effect
       effect="bspline"
       id="path-effect2385"
       is_visible="true"
       lpeversion="1"
       weight="33.333333"
       steps="2"
       helper_size="0"
       apply_no_weight="true"
       apply_with_weight="true"
       only_selected="false" />
    <inkscape:path-effect
       effect="bspline"
       id="path-effect2385-3"
       is_visible="true"
       lpeversion="1"
       weight="33.333333"
       steps="2"
       helper_size="0"
       apply_no_weight="true"
       apply_with_weight="true"
       only_selected="false" />
  </defs>
  <g
     inkscape:label="Layer 1"
     inkscape:groupmode="layer"
     id="layer1">
    <rect
       style="fill:#31a5ff;stroke:#18c423;stroke-width:0;fill-opacity:1"
       id="rect846"
       width="500"
       height="500"
       x="6"
       y="6" />
    <path
       d="M 6,0 6,512 M 56,0 56,512 M 106,0 106,512 M 156,0 156,512 M 206,0 206,512 M 256,0 256,512 M 306,0 306,512 M 356,0 356,512 M 406,0 406,512 M 456,0 456,512 M 506,0 506,512 M 6,6 518,6 M 6,56 518,56 m -512,50 512,0 m -512,50 512,0 m -512,50 512,0 m -512,50 512,0 m -512,50 512,0 m -512,50 512,0 m -512,50 512,0 m -512,50 512,0 m -512,50 512,0"
       style="fill:none;stroke:#ffffff;stroke-width:2;stroke-miterlimit:4;stroke-dasharray:2,2;stroke-dashoffset:1;stroke-opacity:1"
       id="path3539" />
    <text
       xml:space="preserve"
       id="text8507"
       style="font-style:normal;font-variant:normal;font-weight:bold;font-stretch:normal;font-size:85.3333px;line-height:1.25;font-family:FreeMono;-inkscape-font-specification:'FreeMono Bold';text-align:center;white-space:pre;shape-inside:url(#rect8509);fill:#ffffff;fill-opacity:1;stroke:#206a9d;stroke-width:4.2;stroke-miterlimit:4;stroke-dasharray:none;stroke-opacity:1"
       x="0"
       y="0"
       transform="matrix(1.3556762,0,0,1.3556762,-171.1368,53.385492)"><tspan
         x="136.71557"
         y="115.72432"
         id="tspan60669">Dungeon
</tspan><tspan
         x="136.71557"
         y="222.39094"
         id="tspan60671">Planner</tspan></text>
    <rect
       style="fill:#ffffff;fill-opacity:0.000977221;stroke:#206a9d;stroke-width:14;stroke-miterlimit:4;stroke-dasharray:none;stroke-dashoffset:1;stroke-opacity:1;stroke-linejoin:miter;stroke-linecap:round"
       id="rect60321"
       width="512"
       height="512"
       x="0"
       y="0" />
  </g>
</svg>
